<?xml version="1.0" encoding="UTF-8"?> <svg xmlns="http://www.w3.org/2000/svg" width="337.14" height="136.415" viewBox="0 0 337.14 136.415"><g id="foe-architec" transform="translate(-10 -375)"><path id="Path_4244" data-name="Path 4244" d="M7.032-6.936l1.08-3.048c.336-.984.672-1.992.84-2.616.168.624.5,1.632.84,2.616l1.08,3.048ZM10.656-16.8H7.392L.96,0h3.6L5.88-3.744h6.144L13.344,0h3.7Zm14.856,3.936a3.487,3.487,0,0,0-2.592,1.1v-.84H19.608V0H22.92V-6.816c0-2.184.84-2.736,2.136-2.736a2.855,2.855,0,0,1,1.92.816l.864-3.24A3.221,3.221,0,0,0,25.512-12.864ZM37.824-4.536a3.633,3.633,0,0,1-2.976,1.608c-1.584,0-2.616-1.344-2.616-3.36,0-2.064,1.032-3.384,2.616-3.384a3.4,3.4,0,0,1,2.88,1.8l2.184-2.208a5.663,5.663,0,0,0-4.992-2.784c-3.5,0-6.048,2.712-6.048,6.576S31.488.264,34.776.264a6.009,6.009,0,0,0,5.16-2.808ZM53.328-7.1c0-3.552-1.44-5.76-4.656-5.76a4.129,4.129,0,0,0-2.952,1.1V-17.5L42.408-15.84V0H45.72V-6.888c0-2.184.792-2.856,2.16-2.856s2.136.672,2.136,2.928V0h3.312ZM58.2-17.424a1.916,1.916,0,0,0-1.9,1.9,1.916,1.916,0,0,0,1.9,1.9,1.916,1.916,0,0,0,1.9-1.9A1.916,1.916,0,0,0,58.2-17.424ZM59.856-12.6H56.544V0h3.312Zm8.976,9.7c-.792,0-1.224-.312-1.224-1.512V-9.48h3.024V-12.6H67.608v-4.9L64.3-15.84v3.24H62.184v3.12H64.3v5.952c0,2.208,1.32,3.792,3.36,3.792A4.41,4.41,0,0,0,70.224-.5l.48-3.36C69.888-3.168,69.432-2.9,68.832-2.9Zm9.432-9.96c-3.192,0-5.616,2.712-5.616,6.576,0,3.984,2.3,6.552,5.928,6.552a5.879,5.879,0,0,0,4.512-2.04L80.736-3.744a2.812,2.812,0,0,1-2.16.888,2.424,2.424,0,0,1-2.592-2.376H83.52a10.381,10.381,0,0,0,.048-1.056C83.568-9.888,81.624-12.864,78.264-12.864ZM76.032-7.728A2.189,2.189,0,0,1,78.1-9.984a2.236,2.236,0,0,1,2.256,2.256Zm18.48,3.192a3.633,3.633,0,0,1-2.976,1.608c-1.584,0-2.616-1.344-2.616-3.36,0-2.064,1.032-3.384,2.616-3.384a3.4,3.4,0,0,1,2.88,1.8L96.6-10.08a5.663,5.663,0,0,0-4.992-2.784c-3.5,0-6.048,2.712-6.048,6.576S88.176.264,91.464.264a6.009,6.009,0,0,0,5.16-2.808ZM104.736-2.9c-.792,0-1.224-.312-1.224-1.512V-9.48h3.024V-12.6h-3.024v-4.9L100.2-15.84v3.24H98.088v3.12H100.2v5.952c0,2.208,1.32,3.792,3.36,3.792A4.41,4.41,0,0,0,106.128-.5l.48-3.36C105.792-3.168,105.336-2.9,104.736-2.9Zm15.576-9.7H117v6.888c0,2.184-.792,2.856-2.16,2.856S112.7-3.528,112.7-5.784V-12.6h-3.312v7.1c0,3.552,1.44,5.76,4.656,5.76A4.129,4.129,0,0,0,117-.84V0h3.312Zm9.12-.264a3.487,3.487,0,0,0-2.592,1.1v-.84h-3.312V0h3.312V-6.816c0-2.184.84-2.736,2.136-2.736a2.855,2.855,0,0,1,1.92.816l.864-3.24A3.221,3.221,0,0,0,129.432-12.864Zm8.976,0c-3.192,0-5.616,2.712-5.616,6.576,0,3.984,2.3,6.552,5.928,6.552a5.879,5.879,0,0,0,4.512-2.04L140.88-3.744a2.812,2.812,0,0,1-2.16.888,2.424,2.424,0,0,1-2.592-2.376h7.536a10.381,10.381,0,0,0,.048-1.056C143.712-9.888,141.768-12.864,138.408-12.864Zm-2.232,5.136a2.189,2.189,0,0,1,2.064-2.256A2.236,2.236,0,0,1,140.5-7.728Z" transform="translate(203.428 507.78)" fill="#007fcc"></path><g id="Group_3497" data-name="Group 3497" transform="translate(-61.292 41.027)"><rect id="Rectangle_120" data-name="Rectangle 120" width="1" height="76.262" transform="translate(246.68 391.491)" fill="#161615"></rect></g><g id="Group_3496" data-name="Group 3496" transform="translate(-283.386 341.518)"><g id="Group_3360" data-name="Group 3360" transform="translate(-1007.125 -1154.838)"><path id="Path_4036" data-name="Path 4036" d="M168.507,403.375a5.334,5.334,0,0,1-1.625,4.163,7.173,7.173,0,0,1-4.953,1.479h-8.4v-17.5h8.455q3.244,0,4.685,1.176a4.128,4.128,0,0,1,1.44,3.381,3.376,3.376,0,0,1-.615,2.181,5.227,5.227,0,0,1-1.49,1.253,4.028,4.028,0,0,1,1.851,1.433,4.164,4.164,0,0,1,.651,2.435m-5.157-6.647a1.543,1.543,0,0,0-.317-.987,1.489,1.489,0,0,0-1.2-.4h-3.65v2.776h3.65a1.53,1.53,0,0,0,1.191-.384,1.482,1.482,0,0,0,.328-1.006m.4,6.737a1.525,1.525,0,0,0-1.723-1.675h-3.851v3.4H162a1.688,1.688,0,0,0,1.329-.487,1.816,1.816,0,0,0,.423-1.237" transform="translate(1197 854)" fill="#161615"></path><rect id="Rectangle_4719" data-name="Rectangle 4719" width="4.957" height="17.499" transform="translate(1367.454 1245.516)" fill="#161615"></rect><path id="Path_4035" data-name="Path 4035" d="M189.357,409.015l-4.178-5.776c-.2-.264-.426-.592-.7-.985s-.533-.787-.787-1.175-.5-.768-.725-1.119-.4-.62-.515-.821c.031.2.054.477.074.837s.033.751.049,1.178.029.862.029,1.314v6.547h-4.649v-17.5h4.272l3.853,5.177c.2.263.437.593.709,1s.548.8.816,1.2.509.78.727,1.123.377.618.473.8a6.649,6.649,0,0,1-.072-.835c-.02-.36-.04-.746-.06-1.173s-.018-.862-.018-1.317v-5.97h4.649v17.5Z" transform="translate(1197 854)" fill="#161615"></path><path id="Path_4034" data-name="Path 4034" d="M210.4,405.093a6.179,6.179,0,0,1-4.074,3.77,10.773,10.773,0,0,1-3.061.426,10.63,10.63,0,0,1-3.055-.426,6.073,6.073,0,0,1-2.413-1.365,6.419,6.419,0,0,1-1.583-2.4,9.626,9.626,0,0,1-.582-3.55V391.52h4.953v10.023a4.34,4.34,0,0,0,.66,2.548,2.394,2.394,0,0,0,2.087.924,2.309,2.309,0,0,0,2.062-.924,4.409,4.409,0,0,0,.645-2.548V391.52h4.945v10.023a9.665,9.665,0,0,1-.584,3.55" transform="translate(1197 854)" fill="#161615"></path><path id="Path_4033" data-name="Path 4033" d="M227.234,403.641a5.815,5.815,0,0,1-.54,2.578,4.693,4.693,0,0,1-1.505,1.745,6.789,6.789,0,0,1-2.283,1,12.194,12.194,0,0,1-2.9.325,13.316,13.316,0,0,1-4.062-.617,13.513,13.513,0,0,1-3.316-1.508l2.35-3.8a8.385,8.385,0,0,0,1.115.638,10.8,10.8,0,0,0,1.327.561,10.155,10.155,0,0,0,1.383.4,6.335,6.335,0,0,0,1.3.152,4.245,4.245,0,0,0,1.785-.255.893.893,0,0,0,.494-.871.812.812,0,0,0-.136-.451,1.5,1.5,0,0,0-.483-.39,4.969,4.969,0,0,0-.908-.375c-.386-.12-.867-.253-1.454-.389a23.645,23.645,0,0,1-2.742-.8,6.445,6.445,0,0,1-1.952-1.065,4.023,4.023,0,0,1-1.17-1.54,5.656,5.656,0,0,1-.386-2.218,5.208,5.208,0,0,1,.486-2.252,5.073,5.073,0,0,1,1.392-1.751,6.53,6.53,0,0,1,2.169-1.123,9.4,9.4,0,0,1,2.854-.4,13.09,13.09,0,0,1,3.911.524,11.262,11.262,0,0,1,3.064,1.5l-2.352,3.8a10.47,10.47,0,0,0-2.346-1.223,7.361,7.361,0,0,0-2.529-.423,2.409,2.409,0,0,0-1.447.294.985.985,0,0,0-.35.776.722.722,0,0,0,.136.435,1.313,1.313,0,0,0,.461.354,6.765,6.765,0,0,0,.875.33c.368.1.84.228,1.4.359a21.246,21.246,0,0,1,2.854.872,7.16,7.16,0,0,1,1.971,1.124,4.04,4.04,0,0,1,1.155,1.552,5.537,5.537,0,0,1,.377,2.127" transform="translate(1197 854)" fill="#161615"></path><g id="Group_3347" data-name="Group 3347" transform="translate(-159 841)"><rect id="Rectangle_61" data-name="Rectangle 61" width="1.773" height="1.77" transform="translate(1513.874 389.788)" fill="#8c8b8b"></rect><rect id="Rectangle_62" data-name="Rectangle 62" width="1.762" height="1.77" transform="translate(1515.96 389.788)" fill="#8c8b8b"></rect><rect id="Rectangle_63" data-name="Rectangle 63" width="1.77" height="1.77" transform="translate(1518.032 389.788)" fill="#8c8b8b"></rect><rect id="Rectangle_64" data-name="Rectangle 64" width="1.764" height="1.77" transform="translate(1520.117 389.788)" fill="#8c8b8b"></rect><rect id="Rectangle_65" data-name="Rectangle 65" width="1.773" height="1.772" transform="translate(1513.874 387.739)" fill="#8c8b8b"></rect><rect id="Rectangle_66" data-name="Rectangle 66" width="1.762" height="1.772" transform="translate(1515.96 387.739)" fill="#8c8b8b"></rect><rect id="Rectangle_67" data-name="Rectangle 67" width="1.77" height="1.772" transform="translate(1518.032 387.739)" fill="#8c8b8b"></rect><rect id="Rectangle_68" data-name="Rectangle 68" width="1.764" height="1.772" transform="translate(1520.117 387.739)" fill="#8c8b8b"></rect><rect id="Rectangle_69" data-name="Rectangle 69" width="1.769" height="1.772" transform="translate(1524.277 387.739)" fill="#8c8b8b"></rect><rect id="Rectangle_70" data-name="Rectangle 70" width="1.773" height="1.767" transform="translate(1513.874 385.705)" fill="#8c8b8b"></rect><rect id="Rectangle_71" data-name="Rectangle 71" width="1.762" height="1.767" transform="translate(1515.96 385.705)" fill="#8c8b8b"></rect><rect id="Rectangle_72" data-name="Rectangle 72" width="1.764" height="1.767" transform="translate(1520.117 385.705)" fill="#8c8b8b"></rect><rect id="Rectangle_73" data-name="Rectangle 73" width="1.77" height="1.767" transform="translate(1522.193 385.705)" fill="#8c8b8b"></rect><rect id="Rectangle_74" data-name="Rectangle 74" width="1.769" height="1.767" transform="translate(1524.277 385.705)" fill="#8c8b8b"></rect><rect id="Rectangle_75" data-name="Rectangle 75" width="1.762" height="1.766" transform="translate(1515.96 383.661)" fill="#8c8b8b"></rect><rect id="Rectangle_76" data-name="Rectangle 76" width="1.77" height="1.766" transform="translate(1518.032 383.661)" fill="#8c8b8b"></rect><rect id="Rectangle_77" data-name="Rectangle 77" width="1.764" height="1.766" transform="translate(1520.117 383.661)" fill="#8c8b8b"></rect><rect id="Rectangle_78" data-name="Rectangle 78" width="1.77" height="1.766" transform="translate(1522.193 383.661)" fill="#8c8b8b"></rect><rect id="Rectangle_79" data-name="Rectangle 79" width="1.779" height="1.766" transform="translate(1526.351 383.661)" fill="#8c8b8b"></rect><rect id="Rectangle_80" data-name="Rectangle 80" width="1.762" height="1.77" transform="translate(1515.96 381.618)" fill="#8c8b8b"></rect><rect id="Rectangle_81" data-name="Rectangle 81" width="1.77" height="1.77" transform="translate(1518.032 381.618)" fill="#8c8b8b"></rect><rect id="Rectangle_82" data-name="Rectangle 82" width="1.764" height="1.77" transform="translate(1520.117 381.618)" fill="#8c8b8b"></rect><rect id="Rectangle_83" data-name="Rectangle 83" width="1.77" height="1.77" transform="translate(1522.193 381.618)" fill="#8c8b8b"></rect><rect id="Rectangle_84" data-name="Rectangle 84" width="1.769" height="1.77" transform="translate(1524.277 381.618)" fill="#8c8b8b"></rect><rect id="Rectangle_85" data-name="Rectangle 85" width="1.779" height="1.77" transform="translate(1526.351 381.618)" fill="#8c8b8b"></rect><rect id="Rectangle_86" data-name="Rectangle 86" width="1.77" height="1.77" transform="translate(1528.432 381.618)" fill="#8c8b8b"></rect><rect id="Rectangle_87" data-name="Rectangle 87" width="1.77" height="1.77" transform="translate(1532.599 381.618)" fill="#8c8b8b"></rect><rect id="Rectangle_88" data-name="Rectangle 88" width="1.764" height="1.768" transform="translate(1520.117 379.58)" fill="#8c8b8b"></rect><rect id="Rectangle_89" data-name="Rectangle 89" width="1.77" height="1.768" transform="translate(1522.193 379.58)" fill="#8c8b8b"></rect><rect id="Rectangle_90" data-name="Rectangle 90" width="1.779" height="1.768" transform="translate(1526.351 379.58)" fill="#8c8b8b"></rect><rect id="Rectangle_91" data-name="Rectangle 91" width="1.768" height="1.768" transform="translate(1530.514 379.58)" fill="#8c8b8b"></rect><rect id="Rectangle_92" data-name="Rectangle 92" width="1.77" height="1.774" transform="translate(1518.032 377.538)" fill="#8c8b8b"></rect><rect id="Rectangle_93" data-name="Rectangle 93" width="1.764" height="1.774" transform="translate(1520.117 377.538)" fill="#8c8b8b"></rect><rect id="Rectangle_94" data-name="Rectangle 94" width="1.77" height="1.774" transform="translate(1522.193 377.538)" fill="#8c8b8b"></rect><rect id="Rectangle_95" data-name="Rectangle 95" width="1.769" height="1.774" transform="translate(1524.277 377.538)" fill="#8c8b8b"></rect><rect id="Rectangle_96" data-name="Rectangle 96" width="1.779" height="1.774" transform="translate(1526.351 377.538)" fill="#8c8b8b"></rect><rect id="Rectangle_97" data-name="Rectangle 97" width="1.768" height="1.774" transform="translate(1530.514 377.538)" fill="#8c8b8b"></rect><rect id="Rectangle_98" data-name="Rectangle 98" width="1.779" height="1.774" transform="translate(1540.909 377.538)" fill="#8c8b8b"></rect><rect id="Rectangle_99" data-name="Rectangle 99" width="1.764" height="1.77" transform="translate(1520.117 375.493)" fill="#8c8b8b"></rect><rect id="Rectangle_100" data-name="Rectangle 100" width="1.769" height="1.77" transform="translate(1524.277 375.493)" fill="#8c8b8b"></rect><rect id="Rectangle_101" data-name="Rectangle 101" width="1.77" height="1.77" transform="translate(1528.432 375.493)" fill="#8c8b8b"></rect><rect id="Rectangle_102" data-name="Rectangle 102" width="1.77" height="1.77" transform="translate(1532.599 375.493)" fill="#8c8b8b"></rect><rect id="Rectangle_103" data-name="Rectangle 103" width="1.779" height="1.77" transform="translate(1526.351 373.453)" fill="#8c8b8b"></rect><rect id="Rectangle_104" data-name="Rectangle 104" width="1.768" height="1.77" transform="translate(1530.514 373.453)" fill="#8c8b8b"></rect><rect id="Rectangle_105" data-name="Rectangle 105" width="1.77" height="1.768" transform="translate(1528.432 371.417)" fill="#8c8b8b"></rect><rect id="Rectangle_106" data-name="Rectangle 106" width="1.77" height="1.768" transform="translate(1532.599 371.417)" fill="#8c8b8b"></rect><rect id="Rectangle_107" data-name="Rectangle 107" width="1.77" height="1.768" transform="translate(1536.753 371.417)" fill="#8c8b8b"></rect><rect id="Rectangle_108" data-name="Rectangle 108" width="1.779" height="1.774" transform="translate(1526.351 369.368)" fill="#8c8b8b"></rect><rect id="Rectangle_109" data-name="Rectangle 109" width="1.77" height="1.77" transform="translate(1536.753 367.328)" fill="#8c8b8b"></rect><rect id="Rectangle_110" data-name="Rectangle 110" width="1.772" height="1.77" transform="translate(1542.987 367.328)" fill="#8c8b8b"></rect><rect id="Rectangle_111" data-name="Rectangle 111" width="1.77" height="1.775" transform="translate(1536.753 365.285)" fill="#8c8b8b"></rect><rect id="Rectangle_112" data-name="Rectangle 112" width="1.77" height="1.773" transform="translate(1536.753 363.245)" fill="#8c8b8b"></rect><rect id="Rectangle_113" data-name="Rectangle 113" width="1.768" height="1.772" transform="translate(1538.835 361.205)" fill="#8c8b8b"></rect><rect id="Rectangle_114" data-name="Rectangle 114" width="4.524" height="0.85" transform="translate(1509.021 385.848)" fill="#161615"></rect><path id="Path_28" data-name="Path 28" d="M157.593,378.9h7.59c-2.11,2.362-7.076,6.367-18.328,10.356-19.952,7.1-39.451-1.421-28.032-17.633,11.162-15.862,28.842-19.6,30.694-19.912s4.929-.5,3.429-.04-4.318,1.623-4.156,2.043,2-.034,3.032-.192,1.046.58.43.889-1.114,0-.731.382.158.655-.466.927c-.609.27-2.308.149-2.889.7-.58.53,1.076.53,2.238.071a6.492,6.492,0,0,1,2.7-.653c1.266-.073.073.7.691.963s3.741-.346,2.93.149,1.545.5-.078.97-16.789,2.156-28.426,9.782-13.169,23.41,6.629,19.486c14.432-2.868,20.47-9.456,22.686-12.814v4.53Zm-8.884-20.91c-1-.114-.922.228-1.2.364-.348.171.653.328,1.43.294s.767-.546-.234-.658m-.734-3.579c-.729-.078-.694.151-1.657.308s-1.508,1.15-.542,1.042a7.062,7.062,0,0,0,2.237-.507c.848-.343-.038-.843-.038-.843" transform="translate(1356 13)" fill="#8c8b8b"></path><path id="Path_29" data-name="Path 29" d="M132.288,373.52a9.436,9.436,0,1,1,9.432,9.431,9.431,9.431,0,0,1-9.432-9.431" transform="translate(1356 13)" fill="#ef7000"></path><path id="Path_30" data-name="Path 30" d="M135.323,369.407a1.848,1.848,0,1,1,2.444.944,1.852,1.852,0,0,1-2.444-.944" transform="translate(1356 13)" fill="#fff"></path><path id="Path_31" data-name="Path 31" d="M156.373,351.672c0-.426-1.811-.459-2.083-.073s-1.229.231-1.311.573.812.268,1.583-.031,1.811-.043,1.811-.469" transform="translate(1356 13)" fill="#8c8b8b"></path><path id="Path_32" data-name="Path 32" d="M157.72,352.865a3.867,3.867,0,0,0-2.58-.154,4.782,4.782,0,0,1-1.579.547c-.345,0,.156.421,1.08.421s.807-.237,1.732-.082,1.612-.419,1.347-.732" transform="translate(1356 13)" fill="#8c8b8b"></path><path id="Path_33" data-name="Path 33" d="M155.14,354.481c-.961.237-1.189.348-1.7.466s-.033.5,1.081.271a14.368,14.368,0,0,1,2-.346c.544-.043.464-.54-.192-.582a3.061,3.061,0,0,0-1.192.191" transform="translate(1356 13)" fill="#8c8b8b"></path><path id="Path_34" data-name="Path 34" d="M159.22,354.136c-.292-.439-1.2-.152-1.581.078s-.3.267.346.388,1.255-.27,1.235-.466" transform="translate(1356 13)" fill="#8c8b8b"></path><path id="Path_35" data-name="Path 35" d="M161.608,355.025c-.238-.115-2.153.157-2.462.078s-.733.306-1.389.306-1.687.042-1.308.459,2.047.2,2.771.038a5.721,5.721,0,0,1,2.2-.341c.687.15.283-.515.187-.54" transform="translate(1356 13)" fill="#8c8b8b"></path><rect id="Rectangle_115" data-name="Rectangle 115" width="23.258" height="0.85" transform="translate(1462.845 385.819)" fill="#161615"></rect><rect id="Rectangle_116" data-name="Rectangle 116" width="0.843" height="23.263" transform="translate(1497.316 398.879)" fill="#161615"></rect><rect id="Rectangle_117" data-name="Rectangle 117" width="0.843" height="23.252" transform="translate(1497.316 350.66)" fill="#161615"></rect><rect id="Rectangle_118" data-name="Rectangle 118" width="67.394" height="0.85" transform="translate(1526.371 385.848)" fill="#161615"></rect><path id="Path_36" data-name="Path 36" d="M237.7,373.272a1.7,1.7,0,1,1,1.7,1.7,1.695,1.695,0,0,1-1.7-1.7" transform="translate(1356 13)" fill="#c60810"></path><path id="Path_37" data-name="Path 37" d="M140.043,336.013a1.7,1.7,0,1,1,1.693,1.7,1.689,1.689,0,0,1-1.693-1.7" transform="translate(1356 13)" fill="#c60810"></path><path id="Path_42" data-name="Path 42" d="M140.061,410.776a1.694,1.694,0,1,1,1.692,1.7,1.689,1.689,0,0,1-1.692-1.7" transform="translate(1356 13)" fill="#c60810"></path><path id="Path_43" data-name="Path 43" d="M103.511,373.245a1.693,1.693,0,1,1,1.693,1.7,1.693,1.693,0,0,1-1.693-1.7" transform="translate(1356 13)" fill="#c60810"></path></g><path id="Path_4037" data-name="Path 4037" d="M11.4-12.243H8.955v6.874c0,1.959-.962,3.166-2.519,3.166s-2.5-1.242-2.5-3.2v-6.839H1.487v6.874C1.487-1.8,3.481.192,6.436.192,9.55.192,11.4-1.854,11.4-5.4Zm12.978,0H21.968v5.177c0,.682.035,2.221.035,2.676-.157-.315-.56-.927-.857-1.382l-4.338-6.471H14.464V0h2.414V-5.387c0-.682-.035-2.221-.035-2.676.157.315.56.927.857,1.382L22.195,0h2.186Zm5.772,0H27.7V0h2.449Zm10.861,0L38.758-5.16c-.227.717-.455,1.557-.56,2.011-.1-.437-.35-1.329-.577-2.011l-2.309-7.083H32.6L36.957,0h2.379L43.69-12.243ZM54.727-2.4H48.413V-5.352h3.516V-7.731H48.413V-9.847h6.052v-2.4h-8.5V0h8.763Zm8.255-4.32h-3.2V-9.864h3.2c1.084,0,1.749.455,1.749,1.557C64.731-7.241,64.119-6.716,62.982-6.716Zm1.924,1.959a3.49,3.49,0,0,0,2.344-3.6c0-2.606-1.906-3.883-4.215-3.883h-5.7V0h2.449V-4.408h2.466L64.434,0h2.816ZM74.7-7.486c-1.941-.455-2.466-.7-2.466-1.469,0-.542.437-1.1,1.749-1.1A3.734,3.734,0,0,1,76.764-8.8l1.767-1.714a5.852,5.852,0,0,0-4.46-1.924c-2.414,0-4.373,1.364-4.373,3.585,0,2.414,1.574,3.131,3.83,3.655,2.309.525,2.728.875,2.728,1.662,0,.927-.682,1.329-2.134,1.329a3.966,3.966,0,0,1-3.131-1.4L69.226-2.029A5.676,5.676,0,0,0,73.983.192c3.341,0,4.81-1.574,4.81-3.9C78.793-6.366,76.642-7.031,74.7-7.486ZM84-12.243H81.556V0H84Zm12.016,0h-9.48v2.414h3.516V0h2.449V-9.829h3.516Zm10.109,0L104.4-9.34c-.455.77-1.1,1.941-1.329,2.4-.227-.455-.892-1.662-1.329-2.4l-1.732-2.9H97.193l4.635,7.451V0h2.449V-4.845l4.635-7.4Z" transform="translate(1348.988 1282)" fill="#007fcc"></path></g><path id="Path_4243" data-name="Path 4243" d="M10.638-12.6H1.62V0H4.14V-5.31h3.8V-7.758H4.14v-2.376h6.5ZM14.13-1.908c-1.062,0-1.44-.594-1.44-1.26,0-.756.5-1.188,1.44-1.188a2.878,2.878,0,0,1,1.728.4v1.188A2.032,2.032,0,0,1,14.13-1.908Zm4.212-4.428c0-2.124-1.548-3.312-3.834-3.312a6.357,6.357,0,0,0-3.546.954l.954,1.728a4.663,4.663,0,0,1,2.592-.63,1.2,1.2,0,0,1,1.35,1.206v.468A3.919,3.919,0,0,0,14.04-6.3c-2.142,0-3.834,1.044-3.834,3.132A3.294,3.294,0,0,0,13.734.2,3.017,3.017,0,0,0,15.858-.63V0h2.484ZM26.892-3.4A2.725,2.725,0,0,1,24.66-2.2C23.472-2.2,22.7-3.2,22.7-4.716c0-1.548.774-2.538,1.962-2.538A2.547,2.547,0,0,1,26.82-5.9L28.458-7.56a4.247,4.247,0,0,0-3.744-2.088c-2.628,0-4.536,2.034-4.536,4.932S22.14.2,24.606.2a4.506,4.506,0,0,0,3.87-2.106ZM38.34-9.45H35.856v5.166c0,1.638-.594,2.142-1.62,2.142s-1.6-.5-1.6-2.2V-9.45H30.15v5.328C30.15-1.458,31.23.2,33.642.2A3.1,3.1,0,0,0,35.856-.63V0H38.34Zm4.986-3.672L40.842-11.88V0h2.484ZM50.058-2.178c-.594,0-.918-.234-.918-1.134v-3.8h2.268V-9.45H49.14v-3.672L46.656-11.88v2.43H45.072v2.34h1.584v4.464A2.563,2.563,0,0,0,49.176.2,3.307,3.307,0,0,0,51.1-.378l.36-2.52C50.85-2.376,50.508-2.178,50.058-2.178ZM59.706-9.45,58.158-4.9c-.252.738-.5,1.6-.612,2.07-.108-.45-.36-1.35-.612-2.07L55.386-9.45H52.65L56.322,0l-1.26,3.33H57.51L62.37-9.45Zm13.32-.2c-2.466,0-4.266,2.034-4.266,4.932S70.56.2,73.026.2,77.31-1.818,77.31-4.716,75.492-9.648,73.026-9.648Zm0,7.452c-1.188,0-1.746-1.062-1.746-2.52s.558-2.538,1.746-2.538,1.764,1.1,1.764,2.538C74.79-3.4,74.214-2.2,73.026-2.2ZM83.844-12.8a4.067,4.067,0,0,0-1.566-.27c-1.728,0-2.7.72-2.7,2.484V-9.45H78.444v2.34h1.134V0h2.484V-7.11h1.6V-9.45h-1.6v-.792c0-.522.18-.756.918-.756a1.8,1.8,0,0,1,.864.2ZM10.638,16.967H4.14V13.925H7.758V11.477H4.14V9.3h6.228V6.833H1.62v12.6h9.018ZM21.1,14.105c0-2.664-1.08-4.32-3.492-4.32a3.1,3.1,0,0,0-2.214.828v-.63H12.906v9.45H15.39V14.267c0-1.638.594-2.142,1.62-2.142s1.6.5,1.6,2.2v5.112H21.1Zm9.99-4.122H28.6v.54a2.994,2.994,0,0,0-2-.738c-2.34,0-3.672,1.98-3.672,4.806,0,3.528,1.656,5.04,3.672,5.04a2.912,2.912,0,0,0,2-.792c0,1.458-.522,1.926-2.466,2.2l.882,1.872c3.312-.36,4.068-1.962,4.068-5.076Zm-4.014,7.308c-.972,0-1.62-.81-1.62-2.754,0-1.584.522-2.412,1.476-2.412a1.977,1.977,0,0,1,1.674.81V16.5A1.74,1.74,0,0,1,27.072,17.291ZM34.866,6.365a1.422,1.422,0,1,0,1.422,1.422A1.437,1.437,0,0,0,34.866,6.365Zm1.242,3.618H33.624v9.45h2.484ZM46.8,14.105c0-2.664-1.08-4.32-3.492-4.32a3.1,3.1,0,0,0-2.214.828v-.63H38.61v9.45h2.484V14.267c0-1.638.594-2.142,1.62-2.142s1.6.5,1.6,2.2v5.112H46.8Zm6.048-4.32c-2.394,0-4.212,2.034-4.212,4.932,0,2.988,1.728,4.914,4.446,4.914a4.41,4.41,0,0,0,3.384-1.53L54.7,16.625a2.109,2.109,0,0,1-1.62.666,1.818,1.818,0,0,1-1.944-1.782H56.79a7.787,7.787,0,0,0,.036-.792C56.826,12.017,55.368,9.785,52.848,9.785Zm-1.674,3.852a1.642,1.642,0,0,1,1.548-1.692,1.677,1.677,0,0,1,1.692,1.692ZM62.532,9.785c-2.394,0-4.212,2.034-4.212,4.932,0,2.988,1.728,4.914,4.446,4.914A4.41,4.41,0,0,0,66.15,18.1l-1.764-1.476a2.109,2.109,0,0,1-1.62.666,1.818,1.818,0,0,1-1.944-1.782h5.652a7.787,7.787,0,0,0,.036-.792C66.51,12.017,65.052,9.785,62.532,9.785Zm-1.674,3.852a1.642,1.642,0,0,1,1.548-1.692A1.677,1.677,0,0,1,64.1,13.637Zm12.06-3.852a2.615,2.615,0,0,0-1.944.828v-.63H68.49v9.45h2.484V14.321c0-1.638.63-2.052,1.6-2.052a2.142,2.142,0,0,1,1.44.612l.648-2.43A2.416,2.416,0,0,0,72.918,9.785Zm4.608-3.42a1.422,1.422,0,1,0,1.422,1.422A1.437,1.437,0,0,0,77.526,6.365Zm1.242,3.618H76.284v9.45h2.484ZM89.46,14.105c0-2.664-1.08-4.32-3.492-4.32a3.1,3.1,0,0,0-2.214.828v-.63H81.27v9.45h2.484V14.267c0-1.638.594-2.142,1.62-2.142s1.6.5,1.6,2.2v5.112H89.46Zm9.99-4.122H96.966v.54a2.994,2.994,0,0,0-2-.738c-2.34,0-3.672,1.98-3.672,4.806,0,3.528,1.656,5.04,3.672,5.04a2.912,2.912,0,0,0,2-.792c0,1.458-.522,1.926-2.466,2.2l.882,1.872c3.312-.36,4.068-1.962,4.068-5.076Zm-4.014,7.308c-.972,0-1.62-.81-1.62-2.754,0-1.584.522-2.412,1.476-2.412a1.977,1.977,0,0,1,1.674.81V16.5A1.74,1.74,0,0,1,95.436,17.291Z" transform="translate(341.875 146.99)" fill="#007fcc"></path></g></g></svg> 